<svg width="90" height="82" viewBox="0 0 90 82" fill="none" xmlns="http://www.w3.org/2000/svg">
<path d="M18.5797 23.1813V10.0695H8.37683V23.1813" fill="#E5E9EA"/>
<path d="M13.0103 23.1813V10.0695H8.37683V23.1813" fill="#D1D1D1"/>
<path d="M88.6634 26.0651V68.5993C88.6634 71.5156 86.0685 73.8798 82.8678 73.8798H7.13277C3.93199 73.8798 1.33716 71.5156 1.33716 68.5993V26.0651C1.33716 23.1489 3.93199 20.7847 7.13277 20.7847H18.5926C21.0609 20.7847 23.2601 19.3607 24.0692 17.2352L26.1847 11.6722C26.9938 9.54669 29.1912 8.12104 31.6613 8.12104H65.4685C67.9368 8.12104 70.1342 9.54669 70.9433 11.6722L73.0605 17.2352C73.8696 19.3607 76.067 20.7847 78.5353 20.7847H82.8678C86.0685 20.7847 88.6634 23.1489 88.6634 26.0651Z" fill="#FCB65F"/>
<path d="M11.6773 73.8798H7.13277C3.93199 73.8798 1.33716 71.5156 1.33716 68.5993V26.0651C1.33716 23.1489 3.93199 20.7847 7.13277 20.7847H11.3173V20.7944C8.28405 20.9649 5.88169 23.2593 5.88169 26.0651V68.5993C5.88169 71.5156 8.47652 73.8798 11.6773 73.8798Z" fill="#E29A4B"/>
<path d="M36.2057 8.12104C33.7357 8.12104 31.5382 9.54669 30.7291 11.6722L28.6137 17.2352C27.8046 19.3607 25.6054 20.7847 23.1371 20.7847H19.2484V20.7506C21.444 20.5233 23.3331 19.1707 24.0692 17.2352L26.1846 11.6722C26.9937 9.54669 29.1911 8.12104 31.6612 8.12104H36.2057Z" fill="#E29A4B"/>
<path d="M88.6634 35.1549V68.5993C88.6634 71.5156 86.0685 73.8798 82.8678 73.8798H7.13277C3.93199 73.8798 1.33716 71.5156 1.33716 68.5993V35.1549H88.6634Z" fill="#53BCE9"/>
<path d="M11.6773 73.8798H7.13277C3.93199 73.8798 1.33716 71.5156 1.33716 68.5993V35.1549H5.88169V68.5993C5.88169 71.5156 8.47652 73.8798 11.6773 73.8798Z" fill="#36A6CE"/>
<path d="M44.9997 68.927C58.3352 68.927 69.1457 59.0774 69.1457 46.9273C69.1457 34.7771 58.3352 24.9275 44.9997 24.9275C31.6642 24.9275 20.8536 34.7771 20.8536 46.9273C20.8536 59.0774 31.6642 68.927 44.9997 68.927Z" fill="#E5E9EA"/>
<path d="M62.0734 46.9271C62.0734 51.5077 59.9009 55.6255 56.4418 58.4736C53.4139 60.9661 49.404 62.4843 45.0002 62.4843C40.5983 62.4843 36.5866 60.9661 33.5587 58.4736C30.0995 55.6272 27.9253 51.5077 27.9253 46.9271C27.9253 42.3465 30.0995 38.227 33.5587 35.3822C36.5866 32.8881 40.5983 31.3716 45.0002 31.3716C49.404 31.3716 53.4139 32.8898 56.4418 35.3822C59.9009 38.2287 62.0734 42.3465 62.0734 46.9271Z" fill="#566368"/>
<path d="M57.072 35.9273C60.6268 39.1662 62.2866 43.4776 62.051 47.7201C57.3945 47.9348 52.6625 46.4228 49.1076 43.1837C45.5527 39.9446 43.893 35.6334 44.1299 31.392C48.785 31.1762 53.5171 32.6883 57.072 35.9273Z" fill="#6F7B7F"/>
<path d="M40.8913 50.6697C44.4462 53.9086 46.1059 58.22 45.8703 62.4625C41.2151 62.6783 36.4806 61.1663 32.9257 57.9272C29.3708 54.6881 27.7111 50.3745 27.9492 46.1344C32.6042 45.9186 37.3362 47.4308 40.8913 50.6697Z" fill="#6F7B7F"/>
<path d="M44.9997 51.9541C48.0467 51.9541 50.5169 49.7035 50.5169 46.9273C50.5169 44.151 48.0467 41.9005 44.9997 41.9005C41.9526 41.9005 39.4824 44.151 39.4824 46.9273C39.4824 49.7035 41.9526 51.9541 44.9997 51.9541Z" fill="#435054"/>
<path d="M53.6745 19.5674H64.178C65.5588 19.5674 66.6784 18.5475 66.6784 17.2892V14.7825C66.6784 13.5244 65.559 12.5044 64.178 12.5044H53.6745C52.2936 12.5044 51.1741 13.5242 51.1741 14.7825V17.2894C51.1743 18.5475 52.2936 19.5674 53.6745 19.5674Z" fill="#E5E9EA"/>
<path d="M17.9382 69.3713C20.6072 69.3713 22.7709 67.3999 22.7709 64.9681C22.7709 62.5364 20.6072 60.565 17.9382 60.565C15.2691 60.565 13.1055 62.5364 13.1055 64.9681C13.1055 67.3999 15.2691 69.3713 17.9382 69.3713Z" fill="#566368"/>
<path d="M19.5171 46.9273C19.5171 59.7294 30.9486 70.1448 44.9998 70.1448C51.605 70.1448 57.8676 67.8518 62.6338 63.688C63.1667 63.2224 63.1845 62.4516 62.6735 61.9661C62.1628 61.4805 61.3166 61.4644 60.7837 61.9299C56.5176 65.6568 50.9119 67.7092 44.9998 67.7092C32.4227 67.7092 22.1903 58.3864 22.1903 46.9273C22.1903 35.468 32.4227 26.1452 44.9998 26.1452C57.5771 26.1452 67.8094 35.468 67.8094 46.9273C67.8094 51.3754 66.2896 55.6169 63.4144 59.1936C62.9783 59.7362 63.1073 60.4983 63.7029 60.8956C64.2987 61.2931 65.1349 61.1754 65.571 60.6327C68.7842 56.6357 70.4826 51.8964 70.4826 46.9273C70.4826 34.125 59.0511 23.7095 44.9998 23.7095C30.9486 23.7095 19.5171 34.125 19.5171 46.9273Z" fill="black"/>
<path d="M44.9997 30.1532C34.8482 30.1532 26.5892 37.678 26.5892 46.9273C26.5892 56.1765 34.8482 63.7013 44.9997 63.7013C55.1513 63.7013 63.4102 56.1765 63.4102 46.9273C63.4102 37.678 55.1513 30.1532 44.9997 30.1532ZM44.9997 61.2656C36.3222 61.2656 29.2625 54.8335 29.2625 46.9273C29.2625 39.021 36.3222 32.5889 44.9997 32.5889C53.6773 32.5889 60.737 39.021 60.737 46.9273C60.737 54.8335 53.6773 61.2656 44.9997 61.2656Z" fill="black"/>
<path d="M44.9997 40.6826C41.2205 40.6826 38.1459 43.4839 38.1459 46.9273C38.1459 50.3706 41.2205 53.1719 44.9997 53.1719C48.779 53.1719 51.8536 50.3706 51.8536 46.9273C51.8536 43.4839 48.779 40.6826 44.9997 40.6826ZM44.9997 50.7363C42.6945 50.7363 40.8191 49.0276 40.8191 46.9273C40.8191 44.8269 42.6945 43.1183 44.9997 43.1183C47.305 43.1183 49.1803 44.8269 49.1803 46.9273C49.1803 49.0276 47.305 50.7363 44.9997 50.7363Z" fill="black"/>
<path d="M64.178 20.7853C66.2938 20.7853 68.015 19.2171 68.015 17.2894V14.7825C68.015 12.8548 66.2938 11.2865 64.178 11.2865H53.6744C51.5586 11.2865 49.8374 12.8548 49.8374 14.7825V17.2892C49.8374 19.217 51.5586 20.7852 53.6744 20.7852H64.178V20.7853ZM52.5108 17.2894V14.7825C52.5108 14.1978 53.0328 13.7222 53.6746 13.7222H64.1782C64.8199 13.7222 65.3419 14.1978 65.3419 14.7825V17.2892C65.3419 17.8739 64.8199 18.3495 64.1782 18.3495H53.6746C53.0328 18.3497 52.5108 17.8739 52.5108 17.2894Z" fill="black"/>
<path d="M11.769 64.9683C11.769 68.0677 14.5366 70.5892 17.9384 70.5892C21.3402 70.5892 24.1077 68.0677 24.1077 64.9683C24.1077 61.8689 21.3402 59.3473 17.9384 59.3473C14.5366 59.3473 11.769 61.8689 11.769 64.9683ZM21.4343 64.9683C21.4343 66.7247 19.866 68.1536 17.9382 68.1536C16.0104 68.1536 14.4421 66.7247 14.4421 64.9683C14.4421 63.2119 16.0104 61.783 17.9382 61.783C19.866 61.783 21.4343 63.2119 21.4343 64.9683Z" fill="black"/>
<path d="M90 35.1549C90 35.1512 89.9995 35.1476 89.9995 35.1438V26.0658C89.9995 22.4826 86.7999 19.5675 82.8672 19.5675H78.536C76.6378 19.5675 74.9448 18.4697 74.323 16.8356L72.2063 11.2726C71.2117 8.65882 68.5037 6.9029 65.4674 6.9029H37.0962C36.358 6.9029 35.7595 7.44815 35.7595 8.12071C35.7595 8.79327 36.358 9.33853 37.0962 9.33853H65.4676C67.3658 9.33853 69.0588 10.4363 69.6806 12.0703L71.7973 17.6333C72.7919 20.2471 75.4999 22.0031 78.5362 22.0031H82.8674C85.3261 22.0031 87.3264 23.8256 87.3264 26.0658V33.9371H69.8567C69.1185 33.9371 68.5201 34.4823 68.5201 35.1549C68.5201 35.8274 69.1185 36.3727 69.8567 36.3727H87.3262V68.599C87.3262 70.8391 85.3259 72.6616 82.8672 72.6616H7.13223C4.67356 72.6616 2.67325 70.8391 2.67325 68.599V36.3727H20.1422C20.8804 36.3727 21.4789 35.8274 21.4789 35.1549C21.4789 34.4823 20.8804 33.9371 20.1422 33.9371H2.67325V26.0658C2.67325 23.8256 4.67356 22.0031 7.13223 22.0031H18.5926C21.6287 22.0031 24.3367 20.2471 25.3314 17.6333L27.4481 12.0703C28.0699 10.4363 29.7629 9.33853 31.6611 9.33853H32.6406C33.3787 9.33853 33.9772 8.79327 33.9772 8.12071C33.9772 7.44815 33.3787 6.9029 32.6406 6.9029H31.6611C28.625 6.9029 25.9168 8.65882 24.9222 11.2726L22.8055 16.8356C22.1837 18.4695 20.4908 19.5675 18.5926 19.5675H7.13223C3.19953 19.5675 0 22.4826 0 26.0658V68.599C0 72.1821 3.19953 75.0972 7.13223 75.0972H82.8672C86.7999 75.0972 89.9995 72.1821 89.9995 68.599V35.1659C89.9995 35.1622 90 35.1586 90 35.1549Z" fill="black"/>
<path d="M8.37691 18.4725C9.11508 18.4725 9.71353 17.9272 9.71353 17.2546V11.2874H17.2432V17.2546C17.2432 17.9272 17.8416 18.4725 18.5798 18.4725C19.318 18.4725 19.9164 17.9272 19.9164 17.2546V10.0695C19.9164 9.39698 19.318 8.85173 18.5798 8.85173H8.37691C7.63873 8.85173 7.04028 9.39698 7.04028 10.0695V17.2546C7.04028 17.9272 7.63873 18.4725 8.37691 18.4725Z" fill="black"/>
</svg>
