<svg width="25" height="25" viewBox="0 0 25 25" fill="none" xmlns="http://www.w3.org/2000/svg">
<path d="M15.625 4.6875C19.0734 4.6875 21.875 7.48906 21.875 10.9375C21.875 14.3859 19.0734 17.1875 15.625 17.1875H9.375C7.33672 17.1875 5.52031 18.1703 4.37891 19.6898C3.61953 19.1164 3.125 18.207 3.125 17.1875V9.375C3.125 6.78984 5.23047 4.6875 7.8125 4.6875H15.625ZM15.625 1.5625H7.8125C3.49766 1.5625 0 5.06016 0 9.375V17.1875C0 20.6391 2.80156 23.4375 6.25 23.4375C6.25 21.7102 7.65078 20.3125 9.375 20.3125H15.625C20.8039 20.3125 25 16.1133 25 10.9375C25 5.76172 20.8039 1.5625 15.625 1.5625Z" fill="#006021"/>
</svg>
