<svg width="50" height="43" viewBox="0 0 50 43" fill="none" xmlns="http://www.w3.org/2000/svg">
<g clip-path="url(#clip0)">
<path d="M49.0233 1.9165H34.134C33.5947 1.9165 33.1575 2.29259 33.1575 2.75635C33.1575 3.22011 33.5947 3.59619 34.134 3.59619H48.0467V27.3226H31.3395L33.3243 25.4691H44.9774C45.5168 25.4691 45.954 25.093 45.954 24.6292V6.29033C45.954 5.82657 45.5168 5.45048 44.9774 5.45048H14.9423C14.4029 5.45048 13.9657 5.82657 13.9657 6.29033V11.6108C13.2107 11.5952 12.4492 11.6469 11.7079 11.7706V3.59619H25.534C26.0734 3.59619 26.5106 3.22011 26.5106 2.75635C26.5106 2.29259 26.0734 1.9165 25.534 1.9165H10.7313C10.192 1.9165 9.75475 2.29259 9.75475 2.75635V12.3051C8.61657 12.7515 7.78991 13.3464 7.21442 13.8875C6.00592 15.0239 5.61335 16.182 5.59723 16.2307C5.42341 16.7565 5.90075 17.3003 6.53659 17.3003H7.09733C7.0528 18.5152 7.39675 19.7255 7.51891 20.1131V21.0255C7.51891 21.0364 7.51911 21.0472 7.5196 21.0581C7.60524 22.9517 8.71471 24.59 10.3638 25.5613L10.0292 27.745L5.58434 28.6627C5.56452 28.6668 5.54499 28.6714 5.52546 28.6765C2.5196 29.4709 0.384733 31.8186 0.213151 34.5187C0.212761 34.525 0.212468 34.5312 0.212175 34.5376L0.000260774 40.2167C-0.00823532 40.4439 0.0907881 40.6645 0.274772 40.8278C0.458757 40.9912 0.71198 41.0835 0.976433 41.0835H21.3104C21.8498 41.0835 22.287 40.7074 22.287 40.2436V37.2882C22.287 36.6889 22.5324 36.1051 22.9778 35.6443L28.0877 30.3592L29.5407 29.0023H49.0233C49.5627 29.0023 49.9999 28.6262 49.9999 28.1625V2.75635C49.9999 2.29259 49.5627 1.9165 49.0233 1.9165ZM27.3316 28.5858L25.404 26.8913L31.1672 22.5799C31.3354 22.4541 31.4467 22.2839 31.4865 22.099C31.5387 21.8567 31.4832 21.6417 31.709 21.442L32.7952 20.4836C33.0729 20.2383 33.5504 20.2324 33.8369 20.4721L34.9513 21.4062C35.2353 21.6441 35.2419 22.0576 34.9647 22.3021L33.8783 23.2607C33.7308 23.3909 33.523 23.4585 33.3127 23.4497C33.0215 23.4359 32.7395 23.5353 32.5423 23.7193L27.3316 28.5858ZM17.7946 27.7157L17.353 25.6007C17.4274 25.5584 17.5007 25.5142 17.5733 25.4691H24.3289L21.3587 27.5462C21.1972 27.6554 20.9949 27.7157 20.7889 27.7157H17.7946ZM15.9188 7.13017H44.0008V23.7893H36.0067L36.3638 23.4741C36.541 23.3177 36.6887 23.1434 36.8062 22.9564C37.3705 22.0586 37.1643 20.9149 36.3144 20.2028L35.1998 19.2689C34.1527 18.3919 32.4223 18.4054 31.396 19.3113L30.3098 20.2699C29.9188 20.6151 29.6612 21.0659 29.578 21.5421L26.5741 23.7893H19.3679C19.9428 22.9569 20.251 21.9936 20.251 21.0255V19.856C21.909 16.5292 20.0428 12.7937 15.9188 11.8446V7.13017ZM12.6018 13.349C13.1124 13.2939 13.6307 13.2741 14.1446 13.2984C16.8288 13.4297 19.0643 15.1004 18.9265 17.5103C18.2197 16.9161 17.247 16.5736 16.2584 16.5736H14.3069C13.4907 16.5736 13.2604 15.7362 13.2385 15.648C13.083 14.955 12.0123 14.7339 11.5084 15.292L9.06589 17.9967C9.02575 17.5334 9.03571 17.0573 9.14743 16.6564C9.30651 16.0861 8.75329 15.5981 8.10602 15.6207C8.79294 14.7493 10.1392 13.6208 12.6018 13.349ZM9.47194 20.2852L12.1075 17.3668C12.588 17.8583 13.3017 18.2532 14.3068 18.2532H16.2583C16.9913 18.2532 17.6583 18.625 17.9576 19.2004L18.2975 19.8541V21.0255C18.2975 23.0641 16.2532 24.8206 13.8847 24.8206C11.4627 24.8206 9.57223 23.0398 9.47184 21.0085V20.2852H9.47194ZM13.5757 26.4936C14.2285 26.5203 14.886 26.4598 15.5171 26.3133L15.9265 28.2743C14.8203 29.0207 13.0099 29.0504 11.9196 28.2651L12.2193 26.3092C12.6616 26.4142 13.1175 26.4743 13.5757 26.4936ZM21.476 34.5705C20.7395 35.3323 20.3339 36.2974 20.3339 37.2882V39.4037H7.12243V35.6073C7.12243 35.1435 6.68522 34.7674 6.14587 34.7674C5.60651 34.7674 5.1693 35.1435 5.1693 35.6073V39.4037H1.98483L2.16403 34.6013C2.29294 32.6441 3.89665 30.8757 6.07126 30.2895L10.4027 29.3953C11.3236 30.0469 12.4598 30.4693 13.6576 30.5202C14.9703 30.576 16.4375 30.1759 17.403 29.3953H20.7889C21.4294 29.3896 22.0609 29.2081 22.5661 28.8668L23.8963 27.9679L26.0387 29.8513L21.476 34.5705Z" fill="white"/>
<path d="M30.7714 2.29014C30.291 1.65899 29.1254 1.89558 28.9944 2.63313C28.8598 3.39109 29.9384 3.88785 30.6033 3.38756C30.9673 3.1136 31.0396 2.63582 30.7714 2.29014Z" fill="white"/>
<path d="M20.6235 11.6754H40.3902C40.9296 11.6754 41.3668 11.2993 41.3668 10.8356C41.3668 10.3718 40.9296 9.99573 40.3902 9.99573H20.6235C20.0842 9.99573 19.647 10.3718 19.647 10.8356C19.647 11.2993 20.0842 11.6754 20.6235 11.6754Z" fill="white"/>
<path d="M40.3901 14.0775H31.71C31.1706 14.0775 30.7334 14.4535 30.7334 14.9173C30.7334 15.3811 31.1706 15.7571 31.71 15.7571H40.3901C40.9295 15.7571 41.3667 15.3811 41.3667 14.9173C41.3667 14.4535 40.9295 14.0775 40.3901 14.0775Z" fill="white"/>
</g>
<defs>
<clipPath id="clip0">
<rect width="50" height="43" fill="white"/>
</clipPath>
</defs>
</svg>
