<svg width="40" height="48" viewBox="0 0 40 48" fill="none" xmlns="http://www.w3.org/2000/svg">
<path d="M12.6692 16.3506H36.8126C38.5701 16.3506 39.9999 14.6348 39.9999 12.5259C39.9999 10.417 38.5701 8.7012 36.8126 8.7012H12.6692C10.9117 8.7012 9.48193 10.417 9.48193 12.5259C9.48193 14.6348 10.9117 16.3506 12.6692 16.3506ZM12.6692 10.6136H36.8126C37.6913 10.6136 38.4062 11.4714 38.4062 12.5259C38.4062 13.5804 37.6913 14.4383 36.8126 14.4383H12.6692C11.7905 14.4383 11.0756 13.5804 11.0756 12.5259C11.0756 11.4714 11.7905 10.6136 12.6692 10.6136Z" fill="white"/>
<path d="M36.8126 20.1753H12.6692C10.9117 20.1753 9.48193 21.8911 9.48193 24C9.48193 26.1089 10.9117 27.8247 12.6692 27.8247H36.8126C38.5701 27.8247 39.9999 26.1089 39.9999 24C39.9999 21.8911 38.5701 20.1753 36.8126 20.1753ZM36.8126 25.9123H12.6692C11.7905 25.9123 11.0756 25.0545 11.0756 24C11.0756 22.9455 11.7905 22.0876 12.6692 22.0876H36.8126C37.6913 22.0876 38.4062 22.9455 38.4062 24C38.4062 25.0545 37.6913 25.9123 36.8126 25.9123Z" fill="white"/>
<path d="M36.8126 31.6494H12.6692C10.9117 31.6494 9.48193 33.3652 9.48193 35.4741C9.48193 37.5831 10.9117 39.2988 12.6692 39.2988H36.8126C38.5701 39.2988 39.9999 37.5831 39.9999 35.4741C39.9999 33.3652 38.5701 31.6494 36.8126 31.6494ZM36.8126 37.3865H12.6692C11.7905 37.3865 11.0756 36.5286 11.0756 35.4741C11.0756 34.4196 11.7905 33.5618 12.6692 33.5618H36.8126C37.6913 33.5618 38.4062 34.4196 38.4062 35.4741C38.4062 36.5286 37.6913 37.3865 36.8126 37.3865Z" fill="white"/>
<path d="M3.90438 7.84064C1.75147 7.84064 0 9.94241 0 12.5259C0 15.1094 1.75147 17.2112 3.90438 17.2112C6.05729 17.2112 7.80877 15.1094 7.80877 12.5259C7.80877 9.94241 6.05729 7.84064 3.90438 7.84064ZM3.90438 15.2988C2.6302 15.2988 1.59363 14.0549 1.59363 12.5259C1.59363 10.9969 2.6302 9.75299 3.90438 9.75299C5.17857 9.75299 6.21514 10.9969 6.21514 12.5259C6.21514 14.0549 5.17857 15.2988 3.90438 15.2988Z" fill="white"/>
<path d="M3.90438 19.3147C1.75147 19.3147 0 21.4165 0 24C0 26.5835 1.75147 28.6852 3.90438 28.6852C6.05729 28.6852 7.80877 26.5835 7.80877 24C7.80877 21.4165 6.05729 19.3147 3.90438 19.3147ZM3.90438 26.7729C2.6302 26.7729 1.59363 25.529 1.59363 24C1.59363 22.471 2.6302 21.2271 3.90438 21.2271C5.17857 21.2271 6.21514 22.471 6.21514 24C6.21514 25.529 5.17857 26.7729 3.90438 26.7729Z" fill="white"/>
<path d="M3.90438 30.7888C1.75147 30.7888 0 32.8906 0 35.4741C0 38.0576 1.75147 40.1594 3.90438 40.1594C6.05729 40.1594 7.80877 38.0576 7.80877 35.4741C7.80877 32.8906 6.05729 30.7888 3.90438 30.7888ZM3.90438 38.247C2.6302 38.247 1.59363 37.0031 1.59363 35.4741C1.59363 33.9451 2.6302 32.7012 3.90438 32.7012C5.17857 32.7012 6.21514 33.9451 6.21514 35.4741C6.21514 37.0031 5.17857 38.247 3.90438 38.247Z" fill="white"/>
<path d="M17.2114 13.2908H30.8369C31.2769 13.2908 31.6337 12.8627 31.6337 12.3347C31.6337 11.8066 31.2769 11.3785 30.8369 11.3785H17.2114C16.7713 11.3785 16.4146 11.8066 16.4146 12.3347C16.4146 12.8627 16.7713 13.2908 17.2114 13.2908Z" fill="white"/>
<path d="M12.5898 13.2908H14.024C14.4641 13.2908 14.8209 12.8627 14.8209 12.3347C14.8209 11.8066 14.4641 11.3785 14.024 11.3785H12.5898C12.1497 11.3785 11.793 11.8066 11.793 12.3347C11.793 12.8627 12.1497 13.2908 12.5898 13.2908Z" fill="white"/>
</svg>
