<svg id="Camada_1" data-name="Camada 1" xmlns="http://www.w3.org/2000/svg" viewBox="0 0 384 384"><defs><style>.cls-1{fill:none;stroke:#fff;stroke-miterlimit:10;stroke-width:13px;}.cls-2{fill:#850FB8;}.cls-3{fill:#ded8d8;}.cls-4{fill:#fff;}</style></defs><rect class="cls-1" x="19.5" y="21.5" width="346" height="346" rx="44.17"/><rect class="cls-2" x="-8" y="165" width="54" height="103"/><rect class="cls-2" x="338" y="78" width="54" height="143"/><polygon class="cls-3" points="291 183 322 153 289 203 291 190 291 183"/><polygon class="cls-3" points="222 168 235 194 229 194 222 194 222 168"/><polygon class="cls-3" points="186 175 182 187 182 194 175 194 186 175"/><path class="cls-4" d="M30,192s148.48,272.59,208.74-.71c1.52,1.42,58.71-262,117.26.71,0-.69-60.82-.78-130-.66-6.73,0-8.19-11.35-15-11.34-5.11,0-28.88,11-34,11-27.66.07-41.93.57-66.2.66L98,191.71C58.21,191.86,30,192,30,192Z"/><polygon class="cls-4" points="92 192 119 192 117 189 97 186 92 192"/><path class="cls-3" d="M29,190s35,100,64.52,0c2.48-5,12-26,24.25,0,.46,1,38.23,163,59.23,0,1,2,20.42-157.82,55.85-1.25.35,1.55.7,3.14,1.05,4.75,1.2,2,23.71,98.35,60.91.42C293,189,295,192.54,297,190c9.28-11.63,37.65-41.9,60,3,.07-.09-38.21-1.6-82-2-10.3-.1-16.62.1-28,0-13.92-.12-28.4-.23-43-.33l-19.26-.12c-25.68-.15-51.08-.26-73.67-.34l-10.2,0H96.22C56.79,190,29,190,29,190Z"/><path class="cls-4" d="M359,76h13a0,0,0,0,1,0,0v2.5a6.5,6.5,0,0,1-6.5,6.5h0a6.5,6.5,0,0,1-6.5-6.5V76A0,0,0,0,1,359,76Z"/><path class="cls-4" d="M13,165H26a0,0,0,0,1,0,0v2.5a6.5,6.5,0,0,1-6.5,6.5h0a6.5,6.5,0,0,1-6.5-6.5V165A0,0,0,0,1,13,165Z"/><path class="cls-4" d="M359,214h13a0,0,0,0,1,0,0v2.5a6.5,6.5,0,0,1-6.5,6.5h0a6.5,6.5,0,0,1-6.5-6.5V214A0,0,0,0,1,359,214Z" transform="translate(731 437) rotate(180)"/><path class="cls-4" d="M13,261H26a0,0,0,0,1,0,0v2.5a6.5,6.5,0,0,1-6.5,6.5h0a6.5,6.5,0,0,1-6.5-6.5V261A0,0,0,0,1,13,261Z" transform="translate(39 531) rotate(180)"/></svg>
