<svg width="49" height="42" viewBox="0 0 49 42" fill="none" xmlns="http://www.w3.org/2000/svg">
<g clip-path="url(#clip0)">
<path d="M43.1254 18.6786C42.6688 18.6786 42.2363 18.7696 41.8516 18.9315C41.3816 18.1015 40.3884 17.528 39.2417 17.528C38.7436 17.528 38.2744 17.6363 37.8645 17.8267C37.3617 17.0875 36.4264 16.5896 35.3582 16.5896C34.5495 16.5896 33.8175 16.8754 33.2912 17.3347C33.6512 16.1833 33.9822 14.8315 33.9822 12.9107V4.57348C33.9822 3.2034 32.6818 2.08876 31.0834 2.08876C30.6268 2.08876 30.1944 2.17981 29.8096 2.34166C29.3397 1.51167 28.3465 0.93819 27.1998 0.93819C26.7017 0.93819 26.2325 1.04647 25.8226 1.23695C25.3199 0.497847 24.3847 0 23.3164 0C23.3164 0 23.3164 0 23.3163 0C22.5443 0 21.8168 0.258972 21.2683 0.729092C21.0884 0.883229 20.9352 1.05385 20.8102 1.23686C20.3916 1.04179 19.9212 0.93819 19.4329 0.938272C19.4329 0.938272 19.4329 0.938272 19.4328 0.938272C18.6607 0.938272 17.9333 1.19724 17.3848 1.66736C16.8362 2.13757 16.534 2.76108 16.534 3.42299V7.81937L15.3183 8.42098C14.0141 9.06649 13.4291 10.689 14.0044 12.0499L15.9176 17.5624C15.596 17.6081 15.2918 17.6981 15.015 17.8267C14.5122 17.0875 13.577 16.5896 12.5087 16.5896C11.7366 16.5896 11.0092 16.8486 10.4607 17.3188C10.2808 17.4729 10.1276 17.6436 10.0026 17.8266C9.58397 17.6315 9.11359 17.5279 8.62522 17.528C8.62522 17.528 8.62522 17.528 8.62512 17.528C7.85309 17.528 7.12565 17.7869 6.57718 18.2571C6.02861 18.7273 5.72638 19.3508 5.72638 20.0126V24.4091L4.51076 25.0106C3.20642 25.6561 2.62149 27.2787 3.19676 28.6396L5.72657 35.9286V41.1796C5.72657 41.6327 6.15513 41.9999 6.6836 41.9999H43.373C43.6268 41.9999 43.8703 41.9135 44.0498 41.7596C44.2292 41.6058 44.3301 41.3972 44.3301 41.1796V38.6055C44.3301 36.9667 44.6987 35.8541 45.089 34.6764C45.5274 33.3534 46.0243 31.8539 46.0243 29.5004V21.1632C46.0242 19.7932 44.7238 18.6786 43.1254 18.6786ZM43.1254 20.3192C43.6684 20.3192 44.1101 20.6978 44.1101 21.1633V25.4485C44.1101 25.9139 43.6684 26.2926 43.1254 26.2926C42.5823 26.2926 42.1407 25.9139 42.1407 25.4485V21.1632C42.1406 20.6978 42.5823 20.3192 43.1254 20.3192ZM39.2417 19.1686C39.7848 19.1686 40.2265 19.5473 40.2265 20.0126V21.1631V26.9006C40.2265 27.366 39.7848 27.7446 39.2417 27.7446C38.6987 27.7446 38.257 27.366 38.257 26.9006V20.0126C38.257 19.5473 38.6988 19.1686 39.2417 19.1686ZM36.343 26.9007C36.343 27.3661 35.9012 27.7448 35.3582 27.7448C34.9761 27.7448 34.643 27.5573 34.48 27.2821C34.7007 27.149 34.9131 27.0239 35.1038 26.9148C35.7125 26.5667 36.134 26.0806 36.3429 25.5466V26.9007H36.343ZM34.3735 19.0744C34.3735 18.6089 34.8152 18.2303 35.3582 18.2303C35.9012 18.2303 36.343 18.6089 36.343 19.0744V20.0126V23.9834C36.2838 23.8352 36.2074 23.6896 36.1123 23.5486C35.7168 22.9614 35.0817 22.5652 34.3735 22.3975V20.0127V19.0744ZM31.4747 19.1686C31.7357 19.1686 31.9824 19.2569 32.1694 19.4172C32.3565 19.5775 32.4595 19.789 32.4595 20.0127V22.5079C32.3555 22.5462 32.2529 22.5895 32.1525 22.6391L30.49 23.4619V20.0127C30.49 19.789 30.593 19.5775 30.7801 19.4172C30.9672 19.2569 31.2138 19.1686 31.4747 19.1686ZM31.0834 3.72946C31.6265 3.72946 32.0681 4.10812 32.0681 4.57356V8.85878C32.0681 9.32423 31.6264 9.70288 31.0834 9.70288C30.5405 9.70288 30.0988 9.32423 30.0988 8.85878V4.57348C30.0988 4.10812 30.5405 3.72946 31.0834 3.72946ZM27.1999 2.57889C27.7429 2.57889 28.1847 2.95755 28.1847 3.42291V4.57348V10.311C28.1847 10.7764 27.7429 11.1551 27.1999 11.1551C26.6574 11.1551 26.216 10.777 26.2152 10.312C26.2152 10.3117 26.2152 10.3113 26.2152 10.311C26.2152 10.3104 26.2151 10.3099 26.2151 10.3094L26.2152 3.42299C26.2152 2.95755 26.6569 2.57889 27.1999 2.57889ZM23.3164 11.1551C22.9342 11.1551 22.6011 10.9675 22.4382 10.6923C22.6589 10.5592 22.8713 10.4341 23.062 10.3251C23.6707 9.97703 24.0922 9.491 24.3012 8.95706V10.3111V10.3121C24.3004 10.777 23.859 11.1551 23.3164 11.1551ZM22.3317 2.48456C22.3317 2.26094 22.4347 2.04955 22.6217 1.88926C22.8087 1.72889 23.0554 1.64062 23.3163 1.64062H23.3164C23.8594 1.64062 24.3012 2.01928 24.3012 2.48464V3.42291V7.39354C24.242 7.24531 24.1656 7.09979 24.0705 6.95878C23.6749 6.3716 23.0398 5.97547 22.3316 5.80772V3.42463C22.3316 3.42406 22.3317 3.42357 22.3317 3.42308V2.48456ZM18.4481 3.42308C18.4481 3.19938 18.551 2.9879 18.7381 2.82761C18.9252 2.66724 19.1719 2.57898 19.4329 2.57898C19.6938 2.57898 19.9406 2.66724 20.1276 2.82761C20.3145 2.98774 20.4174 3.19888 20.4176 3.42226V3.42308V5.9183C20.3137 5.95661 20.2111 5.99984 20.1108 6.04946L18.4482 6.87224V3.42308H18.4481ZM21.2605 25.4484C21.2605 25.9139 20.8188 26.2925 20.2758 26.2925C19.7328 26.2925 19.2911 25.9139 19.2911 25.4484V21.1631C19.2911 20.6978 19.7328 20.3191 20.2758 20.3191C20.8188 20.3191 21.2605 20.6978 21.2605 21.1632V25.4484ZM16.3923 19.1686C16.9353 19.1686 17.3771 19.5473 17.3771 20.0126V21.1631V26.9006C17.3771 27.366 16.9353 27.7446 16.3923 27.7446C15.8496 27.7446 15.4084 27.3666 15.4076 26.9017C15.4076 26.9014 15.4076 26.9009 15.4076 26.9006C15.4076 26.9 15.4075 26.8996 15.4075 26.8991L15.4076 20.0126C15.4075 19.5473 15.8493 19.1686 16.3923 19.1686ZM12.5087 27.7447C12.1265 27.7447 11.7934 27.5571 11.6305 27.2819C11.8512 27.1488 12.0635 27.0237 12.2543 26.9147C12.8629 26.5667 13.2844 26.0806 13.4934 25.5466V26.9008V26.9018C13.4927 27.3667 13.0513 27.7447 12.5087 27.7447ZM11.524 19.0743C11.524 18.8507 11.6269 18.6393 11.8139 18.479C12.001 18.3186 12.2477 18.2303 12.5087 18.2303C13.0517 18.2303 13.4934 18.609 13.4934 19.0744V20.0127V23.9835C13.4343 23.8353 13.3577 23.6897 13.2627 23.5487C12.8804 22.9812 12.2635 22.5736 11.5239 22.3985V20.0144C11.5239 20.0139 11.524 20.0133 11.524 20.0128V19.0743ZM7.64034 20.0127C7.64034 19.789 7.74332 19.5776 7.93041 19.4172C8.11742 19.2569 8.36414 19.1686 8.62512 19.1686C8.8861 19.1686 9.13283 19.2569 9.31983 19.4172C9.50674 19.5774 9.60962 19.7885 9.60991 20.0119V20.0127V22.5079C9.50549 22.5464 9.4029 22.5897 9.30308 22.6392L7.64044 23.462V20.0127H7.64034ZM28.5759 40.3594H21.4803V38.6055C21.4803 38.3111 21.4925 38.0191 21.5165 37.7374C21.555 37.2856 21.1589 36.8926 20.6317 36.8595C20.1044 36.8265 19.646 37.1661 19.6075 37.618C19.5801 37.9392 19.5663 38.2714 19.5663 38.6055V40.3594H7.64044V35.8092C7.64044 35.73 7.62704 35.6512 7.60072 35.5752L5.02267 28.147C5.01655 28.1291 5.00947 28.1114 5.00191 28.0939C4.70819 27.4197 5.00554 26.6602 5.46769 26.4314L10.26 24.0598C10.4859 23.9481 10.7511 23.9189 11.0065 23.9775C11.2621 24.0363 11.4747 24.1752 11.6051 24.3689C11.9035 24.8118 11.6151 25.3079 11.192 25.5498C10.3903 26.0083 9.18824 26.7527 8.44348 27.3034C8.04325 27.5993 7.99875 28.1173 8.34404 28.4604C8.68924 28.8034 9.29351 28.8416 9.69384 28.5457C9.7948 28.471 9.90706 28.3912 10.0276 28.3078C10.4475 28.8239 11.0784 29.3511 11.7926 29.9477C14.2228 31.9778 15.9709 33.6952 14.5774 35.764C14.313 36.1563 14.4699 36.6581 14.9276 36.8845C15.3856 37.111 15.9706 36.9766 16.2349 36.5843C18.3135 33.4985 15.7169 30.9649 13.6281 29.1923C13.9319 29.0829 14.2096 28.9303 14.4506 28.7436C14.9649 29.1421 15.6461 29.3852 16.3923 29.3852C17.6522 29.3852 18.7264 28.6925 19.1251 27.7283C19.478 27.8597 19.8671 27.933 20.2758 27.933C20.6214 27.933 20.9529 27.8806 21.2605 27.7852V29.5003C21.2605 29.8005 21.2515 30.0979 21.2339 30.3846C21.206 30.837 21.6112 31.2231 22.1391 31.247C22.6687 31.2707 23.1174 30.9235 23.1454 30.4711C23.1648 30.1559 23.1747 29.8292 23.1747 29.5003V21.1632C23.1747 19.7931 21.8742 18.6785 20.2759 18.6785C19.8193 18.6785 19.3868 18.7695 19.0021 18.9314C18.7867 18.5509 18.4604 18.2254 18.0608 17.9833L15.8305 11.5573C15.8243 11.5394 15.8173 11.5217 15.8097 11.5042C15.516 10.8301 15.8134 10.0705 16.2755 9.84168L21.0678 7.47008C21.5381 7.23752 22.1414 7.37607 22.413 7.77909C22.7114 8.22206 22.4229 8.71818 21.9998 8.96009C21.1981 9.41856 19.9961 10.163 19.2513 10.7137C18.8511 11.0096 18.8066 11.5276 19.1518 11.8706C19.4971 12.2137 20.1012 12.2518 20.5016 11.9559C20.6024 11.8813 20.7148 11.8014 20.8354 11.7181C21.2552 12.2342 21.8861 12.7613 22.6003 13.358C25.0305 15.3881 26.7786 17.1054 25.3852 19.1743C25.1209 19.5666 25.2777 20.0683 25.7355 20.2948C25.8862 20.3695 26.0507 20.4049 26.213 20.4049C26.5438 20.4049 26.8655 20.2577 27.0428 19.9946C29.1212 16.9088 26.5247 14.3753 24.4358 12.6027C24.7397 12.4933 25.0172 12.3408 25.2583 12.154C25.7726 12.5525 26.4538 12.7955 27.2 12.7955C28.4599 12.7955 29.5341 12.1029 29.9328 11.1387C30.2858 11.2701 30.6748 11.3433 31.0835 11.3433C31.4291 11.3433 31.7606 11.291 32.0682 11.1955V12.9106C32.0682 14.9794 31.6527 16.2882 31.2394 17.5367C30.5558 17.5838 29.9191 17.835 29.4267 18.257C28.8782 18.7272 28.576 19.3507 28.576 20.0126V24.4089L27.3604 25.0105C26.0562 25.656 25.4711 27.2785 26.0463 28.6394L28.5761 35.9285V40.3594H28.5759ZM43.2477 34.2282C42.8387 35.4622 42.4159 36.7383 42.4159 38.6056V40.3595H30.49V35.8093C30.49 35.7301 30.4766 35.6513 30.4503 35.5753L27.8722 28.1471C27.8661 28.1292 27.8591 28.1115 27.8515 28.0941C27.5578 27.4199 27.8552 26.6603 28.3173 26.4316L33.1096 24.06C33.5797 23.8275 34.1832 23.9659 34.4548 24.369C34.7532 24.8119 34.4646 25.3081 34.0416 25.55C33.2397 26.0086 32.0376 26.753 31.293 27.3036C30.8928 27.5994 30.8483 28.1175 31.1936 28.4605C31.5388 28.8036 32.1431 28.8417 32.5434 28.5458C32.6444 28.4712 32.7567 28.3913 32.8772 28.3079C33.2971 28.8242 33.9279 29.3512 34.6423 29.948C37.0724 31.9781 38.8204 33.6953 37.427 35.7642C37.1627 36.1565 37.3195 36.6582 37.7773 36.8847C38.2351 37.1114 38.8204 36.9767 39.0846 36.5845C41.1632 33.4987 38.5665 30.9651 36.4776 29.1925C36.7815 29.0831 37.059 28.9306 37.3001 28.7439C37.8144 29.1424 38.4956 29.3854 39.2418 29.3854C40.5018 29.3854 41.5759 28.6928 41.9746 27.7286C42.3276 27.86 42.7166 27.9332 43.1254 27.9332C43.4709 27.9332 43.8026 27.8809 44.1101 27.7854V29.5005C44.1101 31.6254 43.6717 32.9486 43.2477 34.2282Z" fill="white"/>
<path d="M21.4472 33.2442H21.4464C20.9179 33.2442 20.4897 33.6115 20.4897 34.0645C20.4897 34.5176 20.9186 34.8849 21.4472 34.8849C21.9757 34.8849 22.4042 34.5176 22.4042 34.0645C22.4042 33.6115 21.9756 33.2442 21.4472 33.2442Z" fill="white"/>
</g>
<defs>
<clipPath id="clip0">
<rect width="49" height="42" fill="white"/>
</clipPath>
</defs>
</svg>
