<svg width="27" height="24" viewBox="0 0 27 24" fill="none" xmlns="http://www.w3.org/2000/svg">
<g clip-path="url(#clip0)">
<path d="M8.37079 21.7302V1.19927C8.37079 0.536919 7.76648 0 7.0216 0C6.27695 0 5.67269 0.536919 5.67269 1.19927V21.7302C3.88423 21.8807 2.58105 22.3155 2.58105 22.8345C2.58105 23.4781 4.56946 24 7.0216 24C9.47364 24 11.4624 23.4781 11.4624 22.8345C11.4624 22.3155 10.1589 21.8807 8.37079 21.7302Z" fill="#DB0000"/>
<path d="M23.6776 2.0847L20.5543 1.11582C19.7357 0.861922 18.8347 0.939372 18.0862 1.32691L16.0381 2.38898C15.1667 2.84112 14.0953 2.86677 13.1976 2.45763L10.9843 1.44986C10.64 1.29359 10.2307 1.30727 9.90214 1.48616C9.57209 1.66442 9.37183 1.98272 9.37183 2.32545V9.60989C9.37183 9.97896 9.60535 10.3172 9.97438 10.4854L13.1976 11.953C14.0953 12.3621 15.1667 12.3364 16.0381 11.8843L18.0862 10.8222C18.8345 10.4346 19.7358 10.3574 20.5543 10.6111L22.9488 11.3539C23.2861 11.4589 23.662 11.4118 23.9533 11.227C24.2451 11.0423 24.419 10.7434 24.419 10.4248V3.01356C24.4189 2.59509 24.122 2.22225 23.6776 2.0847Z" fill="#DB0000"/>
</g>
<defs>
<clipPath id="clip0">
<rect width="27" height="24" fill="white"/>
</clipPath>
</defs>
</svg>
