<svg width="75" height="78" viewBox="0 0 75 78" fill="none" xmlns="http://www.w3.org/2000/svg">
<g clip-path="url(#clip0)">
<path d="M69.9944 70.672H5.00565C3.64208 70.675 2.51026 69.5765 2.41928 68.1607L0 30.3271L38.7932 26.2924L75 30.3271L72.5744 68.1607C72.4834 69.5735 71.3556 70.6714 69.9944 70.672Z" fill="#F29C1F"/>
<path d="M66.6206 39.8349L66.1938 46.4649H8.80623L8.37937 39.8349C8.35419 39.4624 8.4795 39.0952 8.72441 38.8227C8.96988 38.5495 9.31321 38.3948 9.67255 38.396H65.3275C65.6868 38.3948 66.0301 38.5495 66.2756 38.8227C66.5205 39.0952 66.6458 39.4624 66.6206 39.8349Z" fill="#AF8066"/>
<path d="M66.1938 46.4648L65.6765 54.5337L65.2371 61.3523C65.1896 62.0581 64.6242 62.6044 63.9439 62.6026H11.0562C10.3758 62.6044 9.81046 62.0581 9.76297 61.3523L9.32352 54.5337L8.80624 46.4648L37.5 43.775L66.1938 46.4648Z" fill="#AF8066"/>
<path d="M66.1938 46.4648L65.6765 54.5337H9.32352L8.80624 46.4648H66.1938Z" fill="#805333"/>
<path d="M29.7415 28.9822H45.2585V41.0858C45.2585 45.5419 41.7852 49.1547 37.5 49.1547C33.2147 49.1547 29.7415 45.5419 29.7415 41.0858V28.9822Z" fill="#F0C419"/>
<path d="M40.0864 38.396C40.0864 39.8813 38.9282 41.0858 37.5 41.0858C36.0718 41.0858 34.9136 39.8813 34.9136 38.396C34.9136 36.9106 36.0718 35.7062 37.5 35.7062C38.9282 35.7062 40.0864 36.9106 40.0864 38.396Z" fill="#2C2F38"/>
<path d="M37.5 45.1199C36.7859 45.1199 36.2068 44.5177 36.2068 43.775V41.0858C36.2068 40.3431 36.7859 39.7409 37.5 39.7409C38.2141 39.7409 38.7932 40.3431 38.7932 41.0858V43.775C38.7932 44.5177 38.2141 45.1199 37.5 45.1199Z" fill="#2C2F38"/>
<path d="M21.983 7.46485C17.3796 7.46485 15.7757 9.53577 12.9313 12.8445C11.0172 15.063 12.1296 17.8337 11.6381 20.9133C11.4956 21.7875 9.05171 22.6885 9.05171 23.6026L6.46534 30.3271H2.61893e-06V22.2583C-0.0022862 18.3342 1.49575 14.5703 4.16394 11.7953C6.83213 9.02042 10.4513 7.46247 14.2239 7.46485H21.983Z" fill="#F0C419"/>
<path d="M75 22.2583V30.3271H68.5346L65.9483 23.6026C65.9483 22.6885 64.7976 21.7875 64.6551 20.9133C64.1636 17.8337 63.9828 15.063 62.0687 12.8445C59.2243 9.53577 57.6204 7.46485 53.017 7.46485H60.7761C64.5492 7.46247 68.1679 9.02042 70.8361 11.7953C73.5042 14.5703 75.0023 18.3342 75 22.2583Z" fill="#F0C419"/>
<path d="M68.5347 23.6026V30.3271H6.46533V23.6026C6.46648 22.7016 6.53972 21.8018 6.68506 20.9134L37.5 16.8786L68.3149 20.9134C68.4603 21.8018 68.5335 22.7016 68.5347 23.6026Z" fill="#805333"/>
<path d="M64.5905 12.8445L37.5 14.1888L10.4095 12.8445C13.3507 9.41377 17.5632 7.45592 21.983 7.46484H53.017C57.4368 7.45592 61.6493 9.41377 64.5905 12.8445Z" fill="#805333"/>
<path d="M68.3149 20.9133H6.68506C7.1617 17.9093 8.45374 15.1094 10.4095 12.8445H64.5904C66.5462 15.1094 67.8383 17.9093 68.3149 20.9133Z" fill="#AF8066"/>
</g>
<defs>
<clipPath id="clip0">
<rect width="75" height="78" fill="white"/>
</clipPath>
</defs>
</svg>
