<svg width="65" height="64" viewBox="0 0 65 64" fill="none" xmlns="http://www.w3.org/2000/svg">
<path d="M32.5 0C14.5795 0 0 14.3552 0 32C0 49.6448 14.5795 64 32.5 64C50.4205 64 65 49.6448 65 32C65 14.3552 50.4205 0 32.5 0ZM32.5 58.1818C17.8376 58.1818 5.90909 46.4367 5.90909 32C5.90909 17.5633 17.8376 5.81818 32.5 5.81818C47.1624 5.81818 59.0909 17.5633 59.0909 32C59.0909 46.4367 47.1622 58.1818 32.5 58.1818Z" fill="#006021"/>
<path d="M44.6868 20.6864L27.9731 37.1427L20.313 29.6002C19.1593 28.4643 17.2885 28.4641 16.1347 29.6C14.9808 30.7361 14.9808 32.5779 16.1347 33.714L25.8839 43.3136C26.438 43.8592 27.1894 44.1658 27.973 44.1658C27.9731 44.1658 27.973 44.1658 27.9731 44.1658C28.7567 44.1658 29.5081 43.8592 30.0622 43.3138L48.8651 24.8006C50.019 23.6645 50.019 21.8226 48.8651 20.6866C47.7113 19.5505 45.8407 19.5503 44.6868 20.6864Z" fill="#006021"/>
</svg>
