<svg width="57" height="53" viewBox="0 0 57 53" fill="none" xmlns="http://www.w3.org/2000/svg">
<path d="M33.5463 26.481L38.5837 21.797C39.2801 21.1477 39.2801 20.1009 38.5837 19.455L36.065 17.1113C35.3686 16.4654 34.2428 16.4637 33.5463 17.1113L28.5072 21.797L23.4716 17.1146C22.7734 16.4654 21.6458 16.4654 20.9493 17.1113L18.4306 19.455C17.7342 20.1009 17.736 21.1511 18.4342 21.7987L23.4698 26.481L18.443 31.155C17.7466 31.8026 17.7466 32.8495 18.443 33.497L20.9617 35.8407C21.6581 36.4866 22.7839 36.4883 23.4804 35.8407L28.507 31.1667L33.5693 35.8755C34.2675 36.5248 35.3951 36.5248 36.0915 35.8772L38.6102 33.5352C39.3066 32.8876 39.3048 31.8391 38.6084 31.1899L33.5463 26.481ZM28.5 0C12.759 0 0 11.8642 0 26.4992C0 41.136 12.759 53 28.5 53C44.241 53 57 41.136 57 26.4992C57 11.8659 44.2408 0 28.5 0ZM28.5 48.0312C15.7107 48.0312 5.34384 38.3915 5.34384 26.4993C5.34384 14.6072 15.7107 4.96732 28.5 4.96732C41.2893 4.96732 51.6562 14.607 51.6562 26.4992C51.6562 38.3913 41.2893 48.0312 28.5 48.0312Z" fill="#EC1100"/>
</svg>
