<svg id="Camada_1" data-name="Camada 1" xmlns="http://www.w3.org/2000/svg" viewBox="0 0 384 384"><defs><style>.cls-1{fill:#c15aed;}.cls-2{fill:#aa13eb;}.cls-3{fill:none;stroke:#aa13eb;stroke-miterlimit:10;stroke-width:13px;}</style></defs><polygon class="cls-1" points="291 188 310 177 289 208 291 195 291 188"/><polygon class="cls-1" points="222 168 235 194 229 194 222 194 222 168"/><polygon class="cls-1" points="186 175 182 187 182 194 175 194 186 175"/><path class="cls-2" d="M30,192s148.48,272.59,208.74-.71c1.52,1.42,58.71-262,117.26.71,0-.69-60.82-.78-130-.66-6.73,0-8.19-11.35-15-11.34-5.11,0-28.88,11-34,11-27.66.07-41.93.57-66.2.66L98,191.71C58.21,191.86,30,192,30,192Z"/><polygon class="cls-2" points="92 192 119 192 117 189 97 186 92 192"/><rect class="cls-3" x="19.5" y="21.5" width="346" height="346" rx="44.17"/><path class="cls-1" d="M29,190s35,100,64.52,0c2.48-5,12-26,24.25,0,.46,1,38.23,163,59.23,0,1,2,20.42-157.82,55.85-1.25.35,1.55.7,3.14,1.05,4.75,1.2,2,23.71,98.35,60.91.42C293,189,295,192.54,297,190c9.28-11.63,37.65-41.9,60,3,.07-.09-38.21-1.6-82-2-10.3-.1-16.62.1-28,0-13.92-.12-28.4-.23-43-.33l-19.26-.12c-25.68-.15-51.08-.26-73.67-.34l-10.2,0H96.22C56.79,190,29,190,29,190Z"/></svg>